<?xml version="1.0" encoding="UTF-8"?>
<svg id="uuid-5d67474b-85f8-4716-9b0b-03328d6acf46" data-name="Layer 1" xmlns="http://www.w3.org/2000/svg" viewBox="0 0 575.75 122.32">
  <path d="m85.46,19.54c-3.54-6.18-8.48-10.98-14.82-14.4-6.35-3.43-13.75-5.14-22.21-5.14H0v120.49h25.22v-37.91h23.21c8.46,0,15.86-1.71,22.21-5.14,6.34-3.42,11.28-8.22,14.82-14.4,3.53-6.18,5.3-13.39,5.3-21.62v-.17c0-8.29-1.77-15.53-5.3-21.71Zm-29.53,14.99c0,2.36-1.93,4.29-4.29,4.29h-1.97c-2.36,0-4.29-1.93-4.29-4.29v-10.2c0-2.36,1.93-4.29,4.29-4.29h1.97c2.36,0,4.29,1.93,4.29,4.29v10.2Zm19.75,0c0,2.36-1.93,4.29-4.29,4.29h-1.97c-2.36,0-4.29-1.93-4.29-4.29v-10.2c0-2.36,1.93-4.29,4.29-4.29h1.97c2.36,0,4.29,1.93,4.29,4.29v10.2Z" style="fill: #231f20; stroke-width: 0px;"/>
  <path d="m94.47,0h24.38v46.42h.5c2.34-5.57,5.83-9.84,10.48-12.82,4.65-2.98,10.31-4.47,16.99-4.47s12.11,1.43,16.78,4.3c4.68,2.87,8.28,6.92,10.81,12.15,2.53,5.23,3.8,11.47,3.8,18.7v56.19h-24.46v-51.18c0-6.23-1.48-11.12-4.43-14.65-2.95-3.53-7.21-5.3-12.77-5.3-3.56,0-6.67.85-9.31,2.55-2.64,1.7-4.7,4.04-6.18,7.01-1.48,2.98-2.21,6.42-2.21,10.31v51.27h-24.38V0Z" style="fill: #231f20; stroke-width: 0px;"/>
  <path d="m257.77,43.34c-3.14-4.51-7.55-8.01-13.23-10.48-5.68-2.48-12.39-3.72-20.12-3.72s-14.63,1.21-20.34,3.63c-5.7,2.43-10.15,5.78-13.35,10.07-3.21,4.28-5.06,9.18-5.56,14.69l-.08,1h22.38l.16-.75c.61-2.89,2.26-5.27,4.93-7.14,2.67-1.86,6.29-2.79,10.85-2.79,4.79,0,8.44,1.14,10.94,3.42,2.51,2.28,3.76,5.4,3.76,9.35v5.47l-22.13,1.38c-7.4.5-13.71,1.86-18.91,4.09-5.2,2.23-9.17,5.27-11.9,9.14-2.73,3.87-4.09,8.53-4.09,13.99v.16c0,5.24,1.27,9.9,3.8,13.99,2.53,4.09,6.07,7.29,10.6,9.6,4.54,2.31,9.79,3.47,15.74,3.47,3.9,0,7.53-.59,10.9-1.76,3.37-1.17,6.36-2.86,8.98-5.09,2.61-2.23,4.78-4.84,6.51-7.85h.5v13.28h24.38v-61.37c0-6.01-1.57-11.27-4.72-15.78Zm-19.66,44.5c0,3.06-.82,5.83-2.46,8.31-1.65,2.47-3.9,4.42-6.77,5.84-2.86,1.42-6.11,2.13-9.72,2.13-4.24,0-7.6-.93-10.11-2.8-2.5-1.86-3.76-4.43-3.76-7.72v-.17c0-3.17,1.23-5.7,3.68-7.59,2.45-1.9,6.01-2.98,10.69-3.26l18.45-1.24v6.5Z" style="fill: #231f20; stroke-width: 0px;"/>
  <path d="m265.51,30.98h24.38v14.7h.5c2.34-5.12,5.79-9.16,10.35-12.11,4.56-2.95,10.21-4.43,16.95-4.43,9.85,0,17.46,2.96,22.84,8.89,5.37,5.93,8.06,14.15,8.06,24.67v57.78h-24.38v-52.69c0-5.84-1.38-10.38-4.13-13.61-2.76-3.23-6.86-4.84-12.32-4.84-3.62,0-6.76.83-9.44,2.5s-4.75,3.98-6.22,6.93c-1.48,2.95-2.21,6.37-2.21,10.27v51.43h-24.38V30.98Z" style="fill: #231f20; stroke-width: 0px;"/>
  <path d="m379.74,50.73c3.7-6.93,8.86-12.26,15.49-15.99,2.06-1.16,4.23-2.13,6.5-2.93v-.83h-16.36V9.1h-24.63v21.88h-12.44v18.37h12.44v46.09c0,9.57,2.39,16.45,7.18,20.62,4.78,4.18,12.13,6.26,22.04,6.26,2.56,0,4.83-.09,6.81-.29,1.97-.19,3.63-.4,4.96-.62v-1.68c-2.34-.8-4.57-1.79-6.67-2.96-6.62-3.7-11.76-9.04-15.4-16.03-3.65-6.99-5.47-15.32-5.47-25.01v-.16c0-9.63,1.85-17.91,5.55-24.84Z" style="fill: #231f20; stroke-width: 0px;"/>
  <path d="m438.06,75.57v.16c0,5.85-.79,10.82-2.38,14.91-1.58,4.09-3.82,7.21-6.72,9.35-2.89,2.14-6.32,3.21-10.27,3.21s-7.49-1.07-10.44-3.21c-2.95-2.14-5.21-5.26-6.8-9.35-1.59-4.09-2.38-9.06-2.38-14.91v-.16c0-5.74.81-10.64,2.42-14.7,1.62-4.06,3.88-7.18,6.81-9.35,2.92-2.17,6.33-3.26,10.22-3.26s7.39,1.07,10.32,3.22c2.92,2.14,5.19,5.26,6.8,9.35,1.61,4.09,2.42,9,2.42,14.74Z" style="fill: #231f20; stroke-width: 0px;"/>
  <path d="m572.08,43.42c-2.45-4.51-5.87-8.02-10.27-10.52-4.4-2.51-9.52-3.76-15.36-3.76-4.4,0-8.45.75-12.15,2.26-3.7,1.5-6.9,3.63-9.6,6.38-2.7,2.76-4.72,6.03-6.06,9.81h-.5c-.94-3.95-2.57-7.29-4.88-10.01-2.31-2.73-5.14-4.82-8.48-6.27-3.34-1.44-7.09-2.17-11.27-2.17-6.01,0-11.23,1.53-15.65,4.59-4.43,3.07-7.56,7.16-9.4,12.28h-.5v-15.03h-24.38v4.67c5.87,3.65,10.49,8.64,13.85,14.99,3.68,6.93,5.51,15.24,5.51,24.93v.16c0,9.74-1.82,18.09-5.46,25.05-3.37,6.42-8,11.46-13.9,15.1v4.61h24.38v-54.03c0-3.34.66-6.28,1.96-8.85,1.31-2.56,3.14-4.57,5.47-6.05,2.34-1.47,5.04-2.21,8.1-2.21s5.58.61,7.73,1.84c2.14,1.22,3.79,2.97,4.96,5.26,1.17,2.28,1.76,5.03,1.76,8.26v55.78h23.46v-54.36c0-3.34.64-6.26,1.92-8.77,1.28-2.5,3.08-4.46,5.39-5.88,2.3-1.42,4.99-2.13,8.05-2.13s5.83.62,7.98,1.88c2.14,1.25,3.78,3.06,4.92,5.42,1.14,2.37,1.71,5.31,1.71,8.81v55.03h24.38v-61.21c0-6.06-1.22-11.35-3.67-15.86Z" style="fill: #231f20; stroke-width: 0px;"/>
</svg>